<?xml version="1.0" standalone="no"?>
<!DOCTYPE svg PUBLIC "-//W3C//DTD SVG 20010904//EN"
 "http://www.w3.org/TR/2001/REC-SVG-20010904/DTD/svg10.dtd">
<svg version="1.0" xmlns="http://www.w3.org/2000/svg"
 width="760.000000pt" height="760.000000pt" viewBox="0 0 760.000000 760.000000"
 preserveAspectRatio="xMidYMid meet">
<metadata>
Created by potrace 1.14, written by Peter Selinger 2001-2017
</metadata>
<g transform="translate(0.000000,760.000000) scale(0.100000,-0.100000)"
fill="#000000" stroke="none">
<path d="M3067 7164 c-1 -1 -23 -4 -49 -7 -129 -16 -312 -75 -493 -161 -71
-34 -133 -63 -138 -64 -4 -1 -13 -6 -20 -12 -13 -11 -228 -140 -234 -140 -7 0
-338 -225 -341 -232 -2 -5 -9 -8 -15 -8 -7 0 -24 -11 -39 -25 -15 -14 -31 -25
-36 -25 -4 0 -17 -8 -28 -18 -10 -9 -46 -35 -79 -57 -33 -22 -64 -43 -70 -48
-5 -4 -28 -21 -50 -37 -22 -16 -45 -33 -50 -37 -12 -9 -135 -103 -150 -115 -5
-5 -22 -18 -36 -31 -14 -12 -52 -44 -84 -72 -138 -119 -160 -158 -180 -314
-12 -95 -60 -204 -116 -262 -89 -93 -186 -135 -319 -138 -122 -3 -130 -4 -130
-13 0 -4 -5 -8 -11 -8 -12 0 -80 -46 -120 -82 -15 -13 -75 -61 -133 -107 -117
-92 -141 -127 -126 -181 5 -17 9 -33 8 -36 0 -6 80 -98 173 -198 31 -34 71
-79 90 -101 19 -22 41 -47 49 -55 22 -22 105 -114 180 -199 72 -81 120 -111
177 -111 55 0 79 14 183 110 47 44 162 145 170 150 9 5 17 57 25 162 11 133
41 214 99 274 24 24 116 83 161 103 169 75 348 40 538 -103 76 -57 241 -216
317 -305 24 -29 53 -57 63 -63 23 -12 67 8 118 54 20 18 72 65 115 103 43 39
88 79 100 90 12 11 52 47 90 80 37 33 85 77 107 97 22 20 68 60 102 90 67 57
95 94 95 126 0 11 -28 55 -63 99 -141 175 -247 313 -247 322 0 5 -4 11 -8 13
-20 8 -73 117 -88 183 -10 42 -12 137 -3 177 30 137 130 277 294 412 96 79
105 86 110 86 3 0 26 15 52 34 57 40 176 111 253 150 30 15 80 41 110 58 30
16 60 31 65 32 6 1 21 8 35 16 29 16 206 95 330 146 47 20 99 42 115 49 17 8
59 26 95 41 99 40 154 67 168 81 7 7 12 14 10 14 -11 4 -103 9 -168 9 -8 0
-230 2 -493 3 -262 2 -478 2 -480 1z"/>
<path d="M6290 7066 c-19 -7 -61 -25 -92 -39 -31 -15 -62 -27 -67 -27 -6 0
-11 -4 -11 -10 0 -5 -7 -10 -15 -10 -9 0 -45 -16 -80 -35 -36 -19 -65 -31 -65
-27 0 4 -4 2 -8 -4 -4 -6 -34 -25 -67 -43 -112 -58 -273 -160 -308 -195 -9 -9
-19 -16 -24 -16 -5 0 -15 -9 -23 -20 -8 -11 -18 -20 -23 -20 -17 0 -185 -179
-216 -231 -96 -159 -118 -275 -126 -679 -3 -118 -7 -231 -9 -250 -17 -128 -26
-168 -53 -240 -13 -36 -27 -74 -30 -85 -4 -11 -9 -22 -13 -25 -4 -3 -15 -19
-23 -37 -25 -48 -106 -150 -183 -229 -38 -40 -139 -145 -224 -234 -85 -89
-176 -183 -202 -209 -27 -25 -48 -49 -48 -53 0 -8 83 -108 210 -253 25 -28 66
-76 92 -106 49 -58 59 -69 128 -149 25 -29 52 -61 61 -72 16 -21 15 -22 249
202 52 50 227 216 398 378 37 34 70 62 73 62 4 0 14 7 22 15 9 8 55 35 104 61
93 48 213 87 303 99 64 9 196 9 210 0 5 -3 28 -8 51 -10 23 -2 50 -7 59 -10
77 -24 292 -36 400 -21 85 11 95 13 140 26 25 7 50 14 56 16 6 1 41 16 78 34
143 69 259 175 360 330 54 82 120 218 131 269 2 9 11 48 20 86 9 39 18 79 19
90 2 11 6 40 9 65 23 162 30 284 29 475 0 142 -8 321 -16 361 -22 108 -53 157
-94 149 -9 -2 -20 -4 -23 -4 -18 -3 -55 -50 -133 -171 -49 -74 -105 -161 -127
-193 -21 -32 -39 -60 -39 -63 0 -3 -13 -25 -30 -49 -16 -24 -30 -48 -30 -54 0
-6 -4 -11 -8 -11 -5 0 -19 -19 -32 -42 -13 -24 -26 -45 -29 -48 -3 -3 -13 -17
-21 -32 -25 -45 -103 -134 -139 -159 -19 -13 -39 -29 -45 -35 -16 -15 -94 -45
-135 -51 -81 -12 -159 -2 -226 28 -11 5 -31 13 -45 19 -46 20 -172 102 -206
135 -12 11 -42 40 -68 64 -103 96 -152 203 -143 311 5 56 39 165 57 180 3 3
24 41 47 85 22 44 82 152 132 239 50 88 91 163 91 168 0 4 5 8 10 8 6 0 10 5
10 10 0 6 12 29 26 52 60 95 72 127 62 168 -17 67 -68 91 -138 66z"/>
<path d="M3207 4793 c-26 -19 -47 -39 -47 -44 0 -5 -4 -9 -10 -9 -5 0 -25 -15
-44 -32 -43 -40 -73 -67 -156 -138 -36 -30 -69 -60 -75 -66 -5 -5 -44 -39 -85
-75 -141 -121 -151 -132 -157 -176 -7 -53 10 -78 166 -248 10 -11 51 -58 91
-105 40 -47 76 -87 79 -90 3 -3 33 -36 66 -75 33 -38 65 -75 70 -81 6 -6 35
-39 65 -74 30 -34 64 -72 75 -84 11 -12 45 -50 75 -85 30 -35 64 -73 75 -85
11 -12 43 -49 70 -80 28 -32 61 -71 75 -86 14 -15 50 -55 80 -90 30 -35 64
-74 75 -86 11 -12 45 -50 75 -85 30 -34 62 -70 70 -79 8 -10 40 -46 70 -80 30
-35 71 -82 91 -104 82 -93 187 -213 205 -234 10 -13 35 -41 54 -61 19 -21 60
-66 90 -102 30 -35 66 -76 80 -91 14 -15 43 -48 65 -74 22 -25 54 -61 70 -79
17 -18 39 -44 50 -58 26 -32 144 -164 173 -194 13 -12 21 -23 18 -23 -2 0 10
-15 27 -33 18 -18 57 -62 87 -97 30 -35 60 -68 65 -74 6 -6 44 -49 85 -96 70
-81 106 -122 140 -159 24 -26 134 -153 161 -185 13 -15 33 -38 44 -50 19 -21
114 -128 152 -172 63 -73 124 -143 145 -165 12 -14 43 -49 68 -78 40 -46 84
-80 107 -82 5 0 13 -4 18 -9 10 -7 83 -6 115 2 27 7 58 27 107 69 26 23 57 48
68 58 38 30 140 116 151 126 6 5 28 24 49 40 101 79 140 147 132 225 -6 55
-18 81 -67 141 -31 38 -185 217 -279 325 -68 78 -129 149 -206 239 -42 50 -94
110 -116 135 -21 25 -48 56 -59 70 -12 14 -31 36 -43 50 -13 14 -79 90 -147
170 -68 80 -127 147 -130 150 -3 3 -27 32 -55 65 -27 33 -59 69 -70 81 -11 11
-35 39 -53 62 -19 22 -44 52 -55 65 -12 13 -41 45 -64 73 -23 27 -50 58 -60
70 -10 12 -36 42 -58 68 -22 26 -51 60 -65 75 -14 16 -43 50 -65 76 -22 26
-45 53 -50 59 -6 6 -37 42 -70 81 -33 38 -64 75 -70 81 -5 6 -31 35 -56 65
-25 30 -79 92 -120 140 -86 99 -166 192 -192 223 -44 52 -103 120 -112 130 -6
6 -67 76 -135 156 -68 80 -126 147 -129 150 -3 3 -30 34 -60 70 -30 36 -62 72
-70 81 -9 8 -29 32 -46 53 -16 21 -39 48 -50 60 -11 13 -40 47 -65 76 -25 29
-54 63 -65 74 -11 12 -42 48 -69 81 -28 33 -57 67 -65 76 -9 9 -34 38 -56 64
-136 165 -165 179 -248 118z"/>
<path d="M2894 2916 c-73 -72 -324 -316 -632 -614 -59 -57 -203 -196 -321
-310 -118 -114 -253 -245 -301 -292 -48 -47 -190 -184 -315 -305 -125 -121
-246 -238 -268 -260 -55 -56 -77 -108 -72 -173 7 -87 -8 -68 335 -404 114
-111 142 -128 210 -122 87 6 75 -3 540 454 109 107 359 353 555 545 196 193
484 476 641 630 l284 280 -22 26 c-13 14 -43 50 -68 78 -25 29 -61 70 -80 91
-19 21 -45 50 -57 64 -20 24 -135 156 -158 182 -5 6 -37 41 -70 79 -33 37 -73
82 -90 99 l-30 32 -81 -80z"/>
</g>
</svg>
